<svg xmlns="http://www.w3.org/2000/svg" version="1.1" xmlns:xlink="http://www.w3.org/1999/xlink" width="512" height="512" x="0" y="0" viewBox="0 0 64.002 63.994" style="enable-background:new 0 0 512 512" xml:space="preserve" class=""><g><path fill="#718093" d="M32.001 0C14.328 0 0 14.327 0 31.997 0 49.67 14.328 63.994 32.001 63.994c17.672 0 32.001-14.324 32.001-31.997C64.002 14.327 49.674 0 32.001 0zm8.966 56.374c-.184-2.504-.391-5.604-.402-6.861-.081-.964-.184-3.414-2.512-4.98 9.242-.774 13.641-5.883 13.956-12.633.264-3.844-1.264-7.223-3.979-9.95.139-2.917-.088-6.375-.275-7.896-2.084-.601-6.944 1.966-8.303 3.063-2.864-1.111-9.875-1.501-14.136 0-3.021-2.122-6.459-3.436-8.333-3.069-1.729 3.833-.617 7.459-.279 7.89-2.229 2.035-5.337 4.543-4.493 9.79 1.354 7.696 6.77 11.849 15.491 12.864-1.86.381-2.174 1.768-2.331 2.369-5.856 2.415-7.529-1.492-8.271-2.509-2.458-3.043-4.664-2.161-4.801-2.111-.132.048-.231.239-.218.332.123.655 1.463 1.322 1.527 1.376 1.813 1.352 2.485 3.796 2.899 4.49 2.602 4.277 8.651 2.504 8.708 2.539.005.372-.041 3.521-.078 5.972C14.115 54.037 6 43.979 6 31.997 6 17.639 17.641 5.999 32.001 5.999s26.001 11.64 26.001 25.998c0 11.205-7.099 20.724-17.035 24.377z" opacity="1" data-original="#666666" class=""></path></g></svg>