<svg id="Icons" height="512" viewBox="0 0 60 60" width="512" xmlns="http://www.w3.org/2000/svg"><g fill="#c0d3d8"><path d="m10 34h6v7h-6z"/><path d="m44 34h6v7h-6z"/><path d="m26 26h8v6h-8z"/><path d="m13 8h2v12h-2c-2.208 0-4-1.792-4-4v-4c0-2.208 1.792-4 4-4z"/><path d="m49 8h2v12h-2c-2.208 0-4-1.792-4-4v-4c0-2.208 1.792-4 4-4z" transform="matrix(-1 0 0 -1 96 28)"/></g><rect fill="#d4e3e8" height="26" rx="7" width="34" x="13" y="1"/><rect fill="#202b3f" height="26" rx="5" transform="matrix(0 1 -1 0 44 -16)" width="16" x="22" y="1"/><circle cx="24" cy="13" fill="#52bae6" r="3"/><circle cx="36" cy="13" fill="#52bae6" r="3"/><path d="m18 31h24c1.656 0 3 1.344 3 3v10c0 8.279-6.721 15-15 15-8.279 0-15-6.721-15-15v-10c0-1.656 1.344-3 3-3z" fill="#d4e3e8"/><path d="m11 52v2.5c0 1.38-1.12 2.5-2.5 2.5s-2.5-1.12-2.5-2.5v-8.5z" fill="#c0d3d8"/><path d="m11 33v19s-5 0-5-6v-10c0-1.1.45-2.1 1.17-2.83.73-.72 1.73-1.17 2.83-1.17.55 0 1 .45 1 1z" fill="#d4e3e8"/><path d="m54 46v8.5c0 1.38-1.12 2.5-2.5 2.5s-2.5-1.12-2.5-2.5v-2.5z" fill="#c0d3d8"/><path d="m54 36v10c0 6-5 6-5 6v-19c0-.55.45-1 1-1 1.1 0 2.1.45 2.83 1.17.72.73 1.17 1.73 1.17 2.83z" fill="#d4e3e8"/><rect fill="#52bae6" height="10" rx="1" width="6" x="27" y="36"/><path d="m31 19h-2c-.553 0-1-.447-1-1s.447-1 1-1h2c.553 0 1 .447 1 1s-.447 1-1 1z" fill="#52bae6"/></svg>