<svg xmlns="http://www.w3.org/2000/svg" version="1.1" xmlns:xlink="http://www.w3.org/1999/xlink" width="512" height="512" x="0" y="0" viewBox="0 0 24 24" style="enable-background:new 0 0 512 512" xml:space="preserve" class=""><g><g data-name="20"><path d="M12 19a1 1 0 0 1-.71-.29l-6-6a1 1 0 0 1 0-1.41l6-6a1 1 0 0 1 1.41 1.41L7.41 12l5.29 5.29A1 1 0 0 1 12 19z" fill="#7f8fa6" opacity="1" data-original="#000000" class=""></path><path d="M18 19a1 1 0 0 1-.71-.29l-6-6a1 1 0 0 1 0-1.41l6-6a1 1 0 0 1 1.41 1.41L13.41 12l5.29 5.29A1 1 0 0 1 18 19z" fill="#7f8fa6" opacity="1" data-original="#000000" class=""></path></g></g></svg>