<svg xmlns="http://www.w3.org/2000/svg" version="1.1" xmlns:xlink="http://www.w3.org/1999/xlink" width="512" height="512" x="0" y="0" viewBox="0 0 512 512" style="enable-background:new 0 0 512 512" xml:space="preserve" class=""><g><linearGradient id="a" x1="0" x2="512" y1="258" y2="258" gradientTransform="matrix(1 0 0 -1 0 514)" gradientUnits="userSpaceOnUse"><stop stop-opacity="1" stop-color="#8c7ae6" offset="1"></stop><stop stop-opacity="1" stop-color="#03effe" offset="1"></stop><stop stop-opacity="1" stop-color="#3cbdfe" offset="1"></stop><stop stop-opacity="1" stop-color="#4ab0fe" offset="1"></stop><stop stop-opacity="1" stop-color="#24d2fe" offset="1"></stop><stop stop-opacity="1" stop-color="#4facfe" offset="1"></stop></linearGradient><path d="M431 432c-11.046 0-20-8.954-20-20s8.954-20 20-20 20 8.954 20 20-8.954 20-20 20zm65.689-87.393c-8.561-19.15-27.845-31.558-49.176-31.607h-62.505c-22.5 0-42.13 13.26-50.029 33.807A239.822 239.822 0 0 0 331.302 357H200.356a20.003 20.003 0 0 0-14.35 6.068l-34.356 35.388c-7.567 7.794-7.529 20.203.085 27.95l35 35.612a20 20 0 0 0 14.264 5.981h65c11.046 0 20-8.954 20-20s-8.954-20-20-20h-56.614l-15.428-15.698L208.814 397h137.491a20 20 0 0 0 19.426-15.244c1.618-6.607 3.648-12.959 6.584-20.596 1.936-5.036 6.798-8.16 12.741-8.16H447.466c5.656.013 10.524 3.053 12.705 7.932 5.369 12.012 11.78 30.608 11.828 50.986.048 20.529-6.356 39.551-11.739 51.894-2.17 4.978-7.079 8.188-12.56 8.188h-63.158c-5.533-.013-10.716-3.573-12.896-8.858-2.339-5.671-4.366-12.146-6.197-19.797-2.571-10.742-13.367-17.366-24.105-14.796-10.743 2.571-17.367 13.364-14.796 24.106 2.321 9.699 4.978 18.118 8.121 25.738 8.399 20.364 27.939 33.555 49.827 33.606h63.251a53.623 53.623 0 0 0 49.18-32.201c6.912-15.851 15.137-40.511 15.072-67.975-.064-27.389-8.361-51.67-15.31-67.216zM151.5 492c0 11.046-8.954 20-20 20H60.693c-18.329 0-35.472-8.153-47.032-22.369-11.619-14.286-16.125-32.842-12.363-50.908 12.003-57.657 43.8-110.126 89.532-147.743 24.942-20.516 53.442-36.064 83.813-46.062C141.492 220.092 120 180.509 120 136 120 61.01 181.009 0 256 0s136 61.01 136 136c0 44.469-21.455 84.021-54.556 108.851a258.015 258.015 0 0 1 9.995 3.512c10.341 3.883 15.576 15.414 11.693 25.754-3.883 10.341-15.414 15.578-25.754 11.693-23.107-8.677-47.383-13.35-72.236-13.917-1.708.064-3.42.107-5.142.107-1.707 0-3.404-.042-5.097-.105-101.636 2.364-189.676 75.219-210.445 174.98-1.297 6.229.248 12.613 4.236 17.519 2.31 2.841 7.461 7.606 15.999 7.606H131.5c11.046 0 20 8.954 20 20zm99.811-260.116c1.562-.028 3.125-.051 4.689-.051 1.56 0 3.117.024 4.674.052C311.446 229.438 352 187.367 352 136c0-52.935-43.065-96-96-96s-96 43.065-96 96c0 51.362 40.546 93.43 91.311 95.884z" style="fill:url(#a);" fill=""></path></g></svg>