<svg xmlns="http://www.w3.org/2000/svg" version="1.1" xmlns:xlink="http://www.w3.org/1999/xlink" width="512" height="512" x="0" y="0" viewBox="0 0 511 512" style="enable-background:new 0 0 512 512" xml:space="preserve"><g><linearGradient id="a" x1=".5" x2="512.476" y1="256" y2="256" gradientUnits="userSpaceOnUse"><stop stop-opacity="1" stop-color="#8c7ae6" offset="1"></stop><stop stop-opacity="1" stop-color="#00f2fe" offset="1"></stop><stop stop-opacity="1" stop-color="#03effe" offset="1"></stop><stop stop-opacity="1" stop-color="#3cbdfe" offset="1"></stop><stop stop-opacity="1" stop-color="#03effe" offset="1"></stop><stop stop-opacity="1" stop-color="#24d2fe" offset="1"></stop><stop stop-opacity="1" stop-color="#03effe" offset="1"></stop><stop stop-opacity="1" stop-color="#03effe" offset="1"></stop><stop stop-opacity="1" stop-color="#4ab0fe" offset="1"></stop><stop stop-opacity="1" stop-color="#03effe" offset="1"></stop><stop stop-opacity="1" stop-color="#4facfe" offset="1"></stop></linearGradient><path fill="url(#a)" d="M361.5 392v40c0 44.113-35.887 80-80 80h-201c-44.113 0-80-35.887-80-80V80c0-44.113 35.887-80 80-80h201c44.113 0 80 35.887 80 80v40c0 11.047-8.953 20-20 20s-20-8.953-20-20V80c0-22.055-17.945-40-40-40h-201c-22.055 0-40 17.945-40 40v352c0 22.055 17.945 40 40 40h201c22.055 0 40-17.945 40-40v-40c0-11.047 8.953-20 20-20s20 8.953 20 20zm136.355-170.355-44.785-44.786c-7.812-7.812-20.476-7.812-28.285 0-7.812 7.809-7.812 20.473 0 28.282L456.641 237H216.5c-11.047 0-20 8.953-20 20s8.953 20 20 20h240.14l-31.855 31.86c-7.812 7.808-7.812 20.472 0 28.28a19.935 19.935 0 0 0 14.14 5.86 19.937 19.937 0 0 0 14.145-5.86l44.785-44.785c19.497-19.496 19.497-51.214 0-70.71zm0 0" opacity="1" data-original="url(#a)"></path></g></svg>