<svg id="Capa_1" enable-background="new 0 0 512 512" height="512" viewBox="0 0 512 512" width="512" xmlns="http://www.w3.org/2000/svg"><g><g id="layer1_00000062190088638118004780000004190478534035361962_"><g id="g2058" transform="translate(-453.313 -1030.48)"><path id="path968-9-5" d="m709.315 1030.501v.012c-77.249 0-149.727 31.696-191.911 81.523-43.622 49.116-64.086 112.255-64.086 174.446 0 62.229 20.488 125.401 64.165 174.53.028.047.05.061.077.093 53.417 58.503 125.404 81.354 191.756 81.354h.012c81.157-.07 151.076-35.053 191.832-81.444l.026-.045c43.656-49.124 64.136-112.28 64.136-174.496 0-62.231-20.486-125.408-64.163-174.537-.052-.06-.107-.116-.162-.176-55.343-59.016-125.151-81.256-191.677-81.256zm0 125.234c49.036 0 77.275 15.819 98.249 39.411 20.698 23.282 32.529 56.952 32.529 91.334s-11.832 68.05-32.529 91.331c-20.974 23.591-49.213 39.421-98.249 39.421s-77.27-15.829-98.244-39.421c-20.697-23.28-32.529-56.949-32.529-91.331s11.832-68.052 32.529-91.334c20.974-23.592 49.208-39.411 98.244-39.411z" fill="#5e79bc"/><path id="path1304-9" d="m911.389 1369.28c-6.858-.066-13.15 3.793-16.198 9.937-23.744 47.828-57.885 78.729-107.817 97.006-9.278 3.396-14.046 13.671-10.649 22.948s13.67 14.046 22.948 10.65c57.557-21.069 100.315-59.809 127.565-114.7 4.392-8.847.782-19.581-8.064-23.975-2.421-1.202-5.082-1.84-7.785-1.866z" fill="#435fa2"/><path id="path1312-5" d="m624.318 1063.034c-56.024 19.322-97.312 55.337-124.679 107.957-2.278 4.382-.573 9.782 3.808 12.061 4.382 2.279 9.782.573 12.061-3.808 25.548-49.123 62.459-81.301 114.644-99.298 4.667-1.613 7.144-6.702 5.534-11.369-1.874-5.251-6.75-6.772-11.368-5.543z" fill="#fff"/></g></g></g></svg>