<svg xmlns="http://www.w3.org/2000/svg" version="1.1" xmlns:xlink="http://www.w3.org/1999/xlink" width="512" height="512" x="0" y="0" viewBox="0 0 512 512" style="enable-background:new 0 0 512 512" xml:space="preserve" class=""><g><path fill="#dc4e4b" d="M97.855.169c-13.798-.25-27.957 4.214-40.388 14.147-26.426 21.689-30.29 60.961-8.6 87.386l126.85 154.545-126.85 154.541c-21.69 26.425-17.825 65.695 8.6 87.384 26.424 21.691 65.693 17.83 87.384-8.593L256.045 354.11l111.203 135.469c21.691 26.423 60.96 30.284 87.384 8.593 26.423-21.689 30.286-60.959 8.598-87.384L336.383 256.247 463.23 101.702c21.689-26.426 17.829-65.698-8.598-87.386A62.105 62.105 0 0 0 414.771.222a62.099 62.099 0 0 0-47.523 22.695L256.044 158.388 144.85 22.917C132.741 8.607 115.596.491 97.855.169z" opacity="1" data-original="#8fc23f" class=""></path><path fill="#c2423f" d="M413.351 403.969c-7.508 6.297-8.489 17.489-2.19 24.995l8.731 10.408c3.045 3.569 5.639 8.546 5.752 12.723.023 4.206-.75 7.716-7.235 12.446-7.917 5.773-9.654 16.872-3.881 24.788 5.773 7.917 16.871 9.654 24.788 3.881 14.643-10.68 21.896-26.833 21.808-41.336-.089-14.502-5.928-27.168-15.017-36.367 2.448 2.703-6.571-7.929-7.761-9.349-7.273-7.292-17.585-8.232-24.995-2.189zM148.406 408.432l-37.296 43.602c-3.008 3.728-7.463 7.294-11.663 8.184-4.131.787-7.729.664-13.555-4.858-7.109-6.742-18.337-6.443-25.079.665-6.739 7.112-6.438 18.34.672 25.079 13.153 12.469 30.346 16.681 44.593 13.97s25.652-10.747 33.055-21.35c5.376-6.106 26.443-30.781 36.236-42.23 6.372-7.445 5.5-18.646-1.947-25.016-7.852-6.209-19.099-4.738-25.016 1.954z" opacity="1" data-original="#729b31" class=""></path><g fill="#fff"><path d="M100.182 18.413c-13.216-1.372-26.977 4.869-36.222 15.301-12.326 13.91-15.458 37.541 1.532 59.374A8.87 8.87 0 0 0 79.49 82.194c-13.021-16.734-9.705-28.303-2.252-36.713 7.453-8.411 20.211-11.396 27.178-7.526a8.87 8.87 0 0 0 8.614-15.509 33.43 33.43 0 0 0-12.848-4.033zM416.255 19.396c-9.05-.841-22.185 1.582-32.265 12.377l-27.463 33.311a8.87 8.87 0 0 0 1.206 12.487 8.87 8.87 0 0 0 12.487-1.206l26.797-32.521c5.197-5.514 14.282-7.092 17.595-6.784a8.87 8.87 0 0 0 1.643-17.664z" fill="#ffffff" opacity="1" data-original="#ffffff" class=""></path></g></g></svg>