<svg id="Capa_1" enable-background="new 0 0 512 512" height="512" viewBox="0 0 512 512" width="512" xmlns="http://www.w3.org/2000/svg" xmlns:xlink="http://www.w3.org/1999/xlink"><linearGradient id="SVGID_1_" gradientUnits="userSpaceOnUse" x1="256" x2="256" y1="512" y2="0"><stop offset="0" stop-color="#00b59c"/><stop offset="1" stop-color="#9cffac"/></linearGradient><g><g><g><path d="m331 120c-8.284 0-15 6.716-15 15s6.716 15 15 15 15-6.716 15-15-6.716-15-15-15zm60 302h-15.691c-3.412-37.469-19.474-72.966-45.25-99.147-27.921-28.361-43.504-63.053-44.033-97.884 9.295 6.989 20.254 11.879 32.173 13.938 5.871 18.029 22.839 31.093 42.801 31.093h30c8.284 0 15-6.716 15-15v-150c0-9.254-2.81-17.862-7.618-25.022 22.459-12.971 37.618-37.23 37.618-64.978 0-8.284-6.716-15-15-15h-150c-107.523 0-195 87.477-195 195v90c0 8.284 6.716 15 15 15 24.813 0 45 20.187 45 45v77h-15c-24.813 0-45 20.187-45 45v30c0 8.284 6.716 15 15 15h330c8.284 0 15-6.716 15-15v-30c0-24.813-20.187-45-45-45zm-15-182h-15c-8.271 0-15-6.729-15-15 0-8.284-6.716-15-15-15-24.813 0-45-20.187-45-45 0-8.284-6.716-15-15-15s-15 6.716-15 15v58.136c0 43.37 18.709 86.259 52.681 120.765 19.983 20.297 33.071 48.688 36.446 78.1h-179.127v-227.001c0-57.897 47.103-105 105-105h90c8.271 0 15 6.729 15 15zm-270 31.507v-76.507c0-90.981 74.019-165 165-165h132.43c-6.19 17.461-22.873 30-42.43 30h-90c-74.439 0-135 60.561-135 135v90.056c-8.727-6.568-18.919-11.29-30-13.549zm300 210.493h-300v-15c0-8.271 6.729-15 15-15h270c8.271 0 15 6.729 15 15z" fill="url(#SVGID_1_)"/></g></g></g></svg>