<svg xmlns="http://www.w3.org/2000/svg" version="1.1" xmlns:xlink="http://www.w3.org/1999/xlink" width="512" height="512" x="0" y="0" viewBox="0 0 512 512" style="enable-background:new 0 0 512 512" xml:space="preserve" class=""><g><path fill="#fb5532" d="m101.503 429.442 44.834-44.833-1.834 90.1-35.768 35.768c-3.286 3.286-8.901.896-8.808-3.75zM194.631 336.314l-1.71 83.878a15.488 15.488 0 0 1-4.533 10.631l-35.747 35.747 1.844-90.11z" opacity="1" data-original="#fb5532" class=""></path><path fill="#ec462e" d="m109.116 472.978 36.16-36.159-.773 37.89-35.768 35.768c-3.286 3.286-8.901.886-8.808-3.75l.731-35.49c1.257 3.245 5.686 4.512 8.458 1.741zM193.632 385.134l-.711 35.057a15.488 15.488 0 0 1-4.533 10.631l-35.747 35.747.773-37.901 36.077-36.077a15.43 15.43 0 0 0 4.141-7.457z" opacity="1" data-original="#ec462e"></path><path fill="#0f7a4f" d="m163.166 456.048-29.187 29.187 1.839-90.112 29.187-29.187z" opacity="1" data-original="#0f7a4f" class=""></path><path fill="#0c6842" d="M163.162 456.049 133.98 485.23l.772-37.894 29.182-29.181z" opacity="1" data-original="#0c6842"></path><path fill="#fb5532" d="m37.281 367.508 90.11-1.844-44.834 44.834-77.284 1.576c-4.646.093-7.036-5.522-3.75-8.808zM175.686 317.369l-40.146 40.146-90.1 1.834 35.737-35.737a15.495 15.495 0 0 1 10.632-4.533z" opacity="1" data-original="#fb5532" class=""></path><path fill="#0f7a4f" d="m55.953 348.835-29.187 29.187 90.112-1.839 29.187-29.187z" opacity="1" data-original="#0f7a4f" class=""></path><path fill="#ffd496" d="M479.487 58.762 124.599 413.639 98.36 387.401 453.238 32.512z" opacity="1" data-original="#ffd496" class=""></path><path fill="#fcc16d" d="M112.188 401.238 466.621 46.805 479 59.186 124.57 413.62z" opacity="1" data-original="#fcc16d" class=""></path><path fill="#fcc16d" d="m479.083 59.153-42.433 42.432-4.96-21.278-21.278-4.961 42.432-42.432z" opacity="1" data-original="#fcc16d" class=""></path><path fill="#e0dcdb" d="m133.859 404.377-43.748 43.748c-7.244 7.244-18.989 7.244-26.233 0l-.003-.003c-7.244-7.244-7.244-18.989 0-26.233l43.748-43.748z" opacity="1" data-original="#a69ca7" class=""></path><path fill="#cbc1bf" d="m133.856 404.38-43.743 43.743c-7.248 7.248-18.991 7.248-26.239 0a18.518 18.518 0 0 1-4.64-7.729c6.323 1.909 13.469.372 18.473-4.633l43.765-43.765z" opacity="1" data-original="#918291" class=""></path><path fill="#0f7a4f" d="m353.825 131.9 10.929-10.93 26.245 26.246-10.929 10.929z" opacity="1" data-original="#0f7a4f" class=""></path><path fill="#0c6842" d="m367.686 145.757 10.928-10.928 12.388 12.388-10.928 10.928z" opacity="1" data-original="#0c6842"></path><path fill="#0f7a4f" d="m419.51 118.729-10.92 10.93-26.249-26.249 10.93-10.92z" opacity="1" data-original="#0f7a4f" class=""></path><path fill="#0c6842" d="m419.51 118.73-10.92 10.93-12.39-12.39 10.93-10.92z" opacity="1" data-original="#0c6842"></path><path fill="#e1dde1" d="m439.471 60.965-52.073-12.134c-5.086-1.185-5.395-8.309-.431-9.931L505.228.264c4.015-1.312 7.819 2.493 6.508 6.508L473.1 125.033c-1.622 4.964-8.746 4.654-9.931-.431l-12.134-52.073a15.48 15.48 0 0 0-11.564-11.564z" opacity="1" data-original="#e1dde1" class=""></path><path fill="#cbc5cb" d="m463.166 124.604-6.061-26.006 30.216-92.484L505.234.265c4.007-1.311 7.809 2.491 6.505 6.505l-38.644 118.264c-1.617 4.968-8.742 4.647-9.929-.43z" opacity="1" data-original="#cbc5cb" class=""></path><path fill="#f2eff2" d="M510.479 1.518 446.9 65.097a15.473 15.473 0 0 0-7.43-4.138L387.393 48.83c-5.077-1.187-5.39-8.304-.43-9.929L505.234.265c1.996-.655 3.955-.036 5.245 1.253z" opacity="1" data-original="#f2eff2" class=""></path></g></svg>