<svg xmlns="http://www.w3.org/2000/svg" version="1.1" xmlns:xlink="http://www.w3.org/1999/xlink" width="512" height="512" x="0" y="0" viewBox="0 0 24 24" style="enable-background:new 0 0 512 512" xml:space="preserve" class=""><g><path d="M20.473 16.253v-2.6a2.417 2.417 0 0 0-2.413-2.417H12.6V7.747a2.727 2.727 0 1 0-1.2 0v3.49H5.945a2.42 2.42 0 0 0-2.418 2.417v2.6a2.728 2.728 0 1 0 1.2 0v-2.6a1.22 1.22 0 0 1 1.218-1.218H11.4v3.816a2.727 2.727 0 1 0 1.2 0v-3.815h5.46a1.218 1.218 0 0 1 1.214 1.218v2.6a2.727 2.727 0 1 0 1.2 0zM5.655 18.908a1.527 1.527 0 1 1-1.527-1.527 1.529 1.529 0 0 1 1.527 1.527zm7.873 0A1.527 1.527 0 1 1 12 17.381a1.53 1.53 0 0 1 1.527 1.527zM12 6.619a1.528 1.528 0 1 1 1.527-1.527A1.529 1.529 0 0 1 12 6.619zm7.873 13.817a1.528 1.528 0 1 1 1.527-1.528 1.53 1.53 0 0 1-1.527 1.529z" fill="#ffffff" opacity="1" data-original="#000000"></path></g></svg>