<svg xmlns="http://www.w3.org/2000/svg" version="1.1" xmlns:xlink="http://www.w3.org/1999/xlink" width="512" height="512" x="0" y="0" viewBox="0 0 512 512" style="enable-background:new 0 0 512 512" xml:space="preserve"><g><path d="m25.652 402.773 179.004 102.47a52.24 52.24 0 0 0 25.598 6.73l.144.027h.13a52.37 52.37 0 0 0 25.652-6.75L435.2 402.715a51.071 51.071 0 0 0 25.6-44.067V153.344a50.453 50.453 0 0 0-7.585-26.453l-.05-.137c0-.086-.138-.129-.188-.215a51.388 51.388 0 0 0-17.836-17.305L256.145 6.758a52.476 52.476 0 0 0-51.524 0l-179.02 102.52a51.342 51.342 0 0 0-17.82 17.316c-.05.074-.125.117-.168.195v.129A50.412 50.412 0 0 0 0 153.344v205.304a51.114 51.114 0 0 0 25.652 44.125zm8.532-14.796a34 34 0 0 1-17.067-29.286V153.344c.028-3.48.602-6.938 1.707-10.239l203.043 117.81v232.96a34.476 34.476 0 0 1-8.754-3.465zm409.601-29.286a33.962 33.962 0 0 1-17.066 29.27L247.723 490.395a34.59 34.59 0 0 1-8.79 3.472v-232.96l203.094-117.759a33.062 33.062 0 0 1 1.707 10.239zM213.078 21.613a35.282 35.282 0 0 1 34.61 0l178.98 102.453a33.645 33.645 0 0 1 6.203 4.653L230.398 246.137 27.965 128.707a34.28 34.28 0 0 1 6.168-4.633zm0 0" fill="#ffffff" opacity="1" data-original="#000000"></path><path d="M293.707 385.008a40.058 40.058 0 0 0-29.105 33.765 23.137 23.137 0 0 0 7.832 19.739 23.444 23.444 0 0 0 15.14 5.222c2.54-.007 5.07-.332 7.535-.964a40.3 40.3 0 0 0 29.012-33.844 23.103 23.103 0 0 0-7.875-19.754 24.977 24.977 0 0 0-22.539-4.164zm13.492 22.73a23.278 23.278 0 0 1-16.289 18.485 8.534 8.534 0 0 1-7.508-.852 6.415 6.415 0 0 1-1.707-5.46 23.038 23.038 0 0 1 16.34-18.411 13.39 13.39 0 0 1 3.293-.434 5.366 5.366 0 0 1 4.68 1.797 5.357 5.357 0 0 1 1.156 4.875zM64.742 316.75a25.052 25.052 0 0 0-22.664 4.137 23.081 23.081 0 0 0-7.875 19.754 40.29 40.29 0 0 0 29.106 33.851c2.457.64 4.98.969 7.52.973a23.43 23.43 0 0 0 15.179-5.211 23.157 23.157 0 0 0 7.832-19.738 40.018 40.018 0 0 0-29.098-33.766zm10.281 40.387a8.528 8.528 0 0 1-7.437.855 23.318 23.318 0 0 1-16.387-18.52 6.352 6.352 0 0 1 1.707-5.433 8.438 8.438 0 0 1 7.508-.762 23.044 23.044 0 0 1 16.387 18.399 6.461 6.461 0 0 1-1.778 5.46zM175.676 385.016a25.1 25.1 0 0 0-22.664 4.136 23.084 23.084 0 0 0-7.875 19.758 40.3 40.3 0 0 0 29.105 33.852c2.457.636 4.98.965 7.52.972a23.455 23.455 0 0 0 15.18-5.214 23.153 23.153 0 0 0 7.831-19.739 40.023 40.023 0 0 0-29.097-33.765zm10.281 40.386a8.535 8.535 0 0 1-7.441.856 23.32 23.32 0 0 1-16.383-18.52 6.356 6.356 0 0 1 1.707-5.433 8.463 8.463 0 0 1 7.508-.762 23.044 23.044 0 0 1 16.386 18.398c.293 2-.363 4.02-1.777 5.461zM64.742 197.29a25.099 25.099 0 0 0-22.664 4.132 23.025 23.025 0 0 0-7.875 19.754 40.305 40.305 0 0 0 29.106 33.851c2.457.637 4.98.965 7.52.973a23.433 23.433 0 0 0 15.179-5.215 23.148 23.148 0 0 0 7.832-19.738c-1.953-16.11-13.45-29.445-29.098-33.758zm10.293 40.382a8.54 8.54 0 0 1-7.45.851A23.347 23.347 0 0 1 51.2 220.008c-.32-1.985.313-4 1.707-5.446a8.524 8.524 0 0 1 7.508-.742 23.04 23.04 0 0 1 16.387 18.39 6.486 6.486 0 0 1-1.766 5.462zM175.676 265.547a25.042 25.042 0 0 0-22.664 4.14 23.077 23.077 0 0 0-7.875 19.754 40.295 40.295 0 0 0 29.105 33.852c2.457.64 4.98.965 7.52.973a23.43 23.43 0 0 0 15.18-5.211 23.157 23.157 0 0 0 7.831-19.739 40.023 40.023 0 0 0-29.097-33.77zm10.281 40.39a8.534 8.534 0 0 1-7.441.852 23.314 23.314 0 0 1-16.383-18.516 6.36 6.36 0 0 1 1.707-5.437 8.475 8.475 0 0 1 7.508-.758 23.039 23.039 0 0 1 16.386 18.399 6.461 6.461 0 0 1-1.777 5.46zM396.11 197.273A40.118 40.118 0 0 0 367 231.04a23.14 23.14 0 0 0 7.836 19.738A23.404 23.404 0 0 0 389.973 256a30.503 30.503 0 0 0 7.543-.98 40.304 40.304 0 0 0 29.015-33.836 23.09 23.09 0 0 0-7.879-19.754 25.019 25.019 0 0 0-22.543-4.157zm13.492 22.735a23.29 23.29 0 0 1-16.293 18.48c-2.5.887-5.27.575-7.508-.851a6.411 6.411 0 0 1-1.707-5.461 23.04 23.04 0 0 1 16.351-18.406c1.075-.286 2.18-.43 3.293-.438a5.366 5.366 0 0 1 4.68 1.797 5.372 5.372 0 0 1 1.148 4.879zM344.91 291.14a40.057 40.057 0 0 0-29.11 33.766 23.14 23.14 0 0 0 7.837 19.739 23.426 23.426 0 0 0 15.136 5.222 30.635 30.635 0 0 0 7.536-.965 40.3 40.3 0 0 0 29.011-33.843 23.103 23.103 0 0 0-7.875-19.754 25.008 25.008 0 0 0-22.535-4.164zm13.488 22.735a23.279 23.279 0 0 1-16.289 18.48 8.523 8.523 0 0 1-7.507-.851 6.415 6.415 0 0 1-1.707-5.461 23.028 23.028 0 0 1 16.34-18.406 13.21 13.21 0 0 1 3.292-.438 5.373 5.373 0 0 1 4.684 1.797 5.376 5.376 0 0 1 1.156 4.879zM209.355 155.766a37.308 37.308 0 0 0 21.098 6.402 36.169 36.169 0 0 0 25.785-10.352 27.414 27.414 0 0 0 8.176-22.074 29.12 29.12 0 0 0-12.91-21.035c-14.664-9.805-34.16-8.129-46.934 4.035a27.12 27.12 0 0 0-8.203 21.965 29.056 29.056 0 0 0 12.988 21.059zm7.391-31.008a19.43 19.43 0 0 1 13.746-5.293 20.271 20.271 0 0 1 11.367 3.328 11.962 11.962 0 0 1 5.567 8.535 10.485 10.485 0 0 1-3.34 8.473A20.618 20.618 0 0 1 219 141.645a11.958 11.958 0 0 1-5.617-8.586 10.246 10.246 0 0 1 3.363-8.301zm0 0" fill="#ffffff" opacity="1" data-original="#000000"></path></g></svg>